<?xml version="1.0" encoding="UTF-8"?>
<!-- Generator: Adobe Illustrator 26.0.1, SVG Export Plug-In . SVG Version: 6.00 Build 0)  -->
<svg xmlns="http://www.w3.org/2000/svg" xmlns:xlink="http://www.w3.org/1999/xlink" version="1.1" id="Layer_1" x="0px" y="0px" viewBox="0 0 100 100" style="enable-background:new 0 0 100 100;" xml:space="preserve">
<style type="text/css">
	.st0{fill:#3B3B3B;}
	.st1{fill:#F39A4F;}
</style>
<g>
	<g>
		<path class="st0" d="M71.3,13H31.7c-2.6,0-4.7,2.1-4.7,4.7v62.7c0,2.6,2.1,4.7,4.7,4.7h39.6c2.6,0,4.7-2.1,4.7-4.7V58l-2,2.4v19.9    c0,1.5-1.2,2.7-2.7,2.7H31.7c-1.5,0-2.7-1.2-2.7-2.7V17.7c0-0.1,0-0.2,0-0.3c0.1-1.3,1.3-2.4,2.7-2.4h39.6c1.5,0,2.7,1.2,2.7,2.7    v28.1l2-2.4V17.7C76,15.1,73.9,13,71.3,13z"></path>
	</g>
	<g>
		<path class="st0" d="M56.2,13.6l-10,1.4h14C59.2,14,57.7,13.4,56.2,13.6z M65.5,83l-14.4,2l-24.5,3.4c-1.5,0.2-2.8-0.8-3-2.3    l-8.6-62.1c-0.2-1.5,0.8-2.8,2.3-3l9.8-1.4l2-0.3v-1.7c0-0.1,0-0.2,0-0.3l-2,0.3l-10.1,1.4c-2.6,0.4-4.3,2.7-4,5.3l8.6,62.1    c0.3,2.3,2.3,4,4.6,4c0.2,0,0.4,0,0.6,0L65.6,85l0.5-0.1c1.2-0.2,2.3-0.8,3.1-1.8c0,0,0.1-0.1,0.1-0.1H65.5z"></path>
	</g>
	<g>
		<path class="st0" d="M53,25H36c-0.5,0-1-0.5-1-1s0.5-1,1-1h17c0.5,0,1,0.5,1,1S53.5,25,53,25z"></path>
	</g>
	<g>
		<path class="st0" d="M66,31H36c-0.5,0-1-0.5-1-1s0.5-1,1-1h30c0.6,0,1,0.5,1,1S66.6,31,66,31z"></path>
	</g>
	<g>
		<path class="st0" d="M43,44h-7c-0.5,0-1-0.5-1-1s0.5-1,1-1h7c0.5,0,1,0.5,1,1S43.5,44,43,44z"></path>
	</g>
	<g>
		<path class="st0" d="M66,44H52c-0.5,0-1-0.5-1-1s0.5-1,1-1h14c0.6,0,1,0.5,1,1S66.6,44,66,44z"></path>
	</g>
	<g>
		<path class="st0" d="M66,51H36c-0.5,0-1-0.5-1-1s0.5-1,1-1h30c0.6,0,1,0.5,1,1S66.6,51,66,51z"></path>
	</g>
	<g>
		<path class="st0" d="M58,64H36c-0.5,0-1-0.5-1-1s0.5-1,1-1h22c0.5,0,1,0.5,1,1S58.5,64,58,64z"></path>
	</g>
	<g>
		<path class="st0" d="M58.4,68.7l1.5,1.3H36c-0.5,0-1-0.4-1-1s0.5-1,1-1h22.6L58.4,68.7z"></path>
		<path class="st0" d="M68,69c0,0.6-0.4,1-1,1h-2.7l2.3-1.1L65.5,68H67c0.2,0,0.4,0.1,0.6,0.2c0.2,0.2,0.4,0.4,0.4,0.7    C68,68.9,68,69,68,69z"></path>
	</g>
	<g>
		<path class="st0" d="M47,76H36c-0.5,0-1-0.4-1-1s0.5-1,1-1h11c0.5,0,1,0.4,1,1S47.5,76,47,76z"></path>
	</g>
	<g>
		<path class="st1" d="M59,61.7c-0.1,0.2-0.2,0.3-0.3,0.5l0,0.1L58.2,64L57,68h1.6l1.3-4.6l0.2-0.8c0,0,0,0,0,0l0.5-0.6L74,45.8    v-2.4L59,61.7z M93.6,32.7L90.2,30c-0.8-0.7-1.8-1-2.9-0.9c-1.1,0.1-2,0.6-2.7,1.4L76,41l-2,2.4L59,61.7c-0.1,0.2-0.2,0.3-0.3,0.5    l0,0.1L58.2,64L57,68l-0.6,2l-0.9,3.2c-0.2,0.6,0,1.2,0.5,1.6c0.3,0.2,0.6,0.4,1,0.4c0.2,0,0.5-0.1,0.7-0.2L68,69.8    c0.2-0.1,0.4-0.2,0.5-0.4l5.5-6.7l2-2.4l18.1-22C95.5,36.6,95.2,34.1,93.6,32.7z M92.9,37.3l-4.3,5.2l-1,1.2l-2.8,3.4l-1,1.2    L76,58l-2,2.4l-6.2,7.5l-0.2,0.3l-0.2,0.3c0,0,0,0,0,0l-0.7,0.4L64.3,70l-2.9,1.4L60,72.2l-3,1.5c0,0,0,0-0.1,0c0,0,0,0,0-0.1    l1-3.3L58,70l0.4-1.3l0.2-0.7l1.3-4.6l0.2-0.8c0,0,0,0,0,0l0.5-0.6L74,45.8l2-2.4l0.9-1.1l0.9-1.2l2.8-3.4l0.9-1.2l4.2-5.1    c0.4-0.5,1-0.8,1.6-0.9c0.1,0,0.2,0,0.2,0c0.6,0,1.1,0.2,1.5,0.5l3.4,2.8C93.7,34.8,93.8,36.3,92.9,37.3z"></path>
	</g>
	<g>
		
			<rect x="83.9" y="34.7" transform="matrix(0.6439 -0.7651 0.7651 0.6439 -0.5586 79.0527)" class="st1" width="1.5" height="10.8"></rect>
	</g>
	<g>
		<rect x="80.2" y="39.3" transform="matrix(0.6416 -0.767 0.767 0.6416 -5.2724 78.064)" class="st1" width="1.5" height="10.8"></rect>
	</g>
	<g>
		<polygon class="st1" points="68.4,68.4 68,68.9 67.4,69.6 66.6,68.9 65.5,68 59.9,63.4 59.1,62.7 60.1,61.6 60.6,62 67.8,67.9       "></polygon>
	</g>
	<g>
		<polygon class="st1" points="61.8,71.8 60.8,72.9 60,72.2 57.9,70.3 57.5,70 57,69.5 58,68.4 58.4,68.7 59.8,70 61.5,71.4   "></polygon>
	</g>
</g>
</svg>
