<?xml version="1.0" encoding="UTF-8"?>
<!-- Generator: Adobe Illustrator 26.0.1, SVG Export Plug-In . SVG Version: 6.00 Build 0)  -->
<svg xmlns="http://www.w3.org/2000/svg" xmlns:xlink="http://www.w3.org/1999/xlink" version="1.1" id="Layer_1" x="0px" y="0px" viewBox="0 0 100 100" style="enable-background:new 0 0 100 100;" xml:space="preserve">
<style type="text/css">
	.st0{fill:#3B3B3B;}
	.st1{fill:#F39A4F;}
</style>
<g>
	<rect x="20.9" y="31.7" class="st0" width="2.3" height="16.4"></rect>
	<rect x="20.9" y="50.7" class="st0" width="2.3" height="16.4"></rect>
	<path class="st0" d="M51.1,82.6c0,0.6-0.5,1.1-1.1,1.1H24.8c-2.1,0-3.9-1.8-3.9-3.9V69.6h2.3v10.2c0,0.9,0.7,1.6,1.6,1.6H50   C50.6,81.4,51.1,81.9,51.1,82.6z"></path>
	<path class="st0" d="M77.6,19v60.8c0,2.2-1.8,3.9-3.9,3.9H55.5c-0.6,0-1.1-0.5-1.1-1.1c0-0.6,0.5-1.1,1.1-1.1h18.2   c0.9,0,1.6-0.7,1.6-1.6V19c0-0.9-0.7-1.6-1.6-1.6H24.8c-0.9,0-1.6,0.7-1.6,1.6v10.2h-2.3V19c0-2.1,1.8-3.9,3.9-3.9h48.9   C75.8,15.1,77.6,16.8,77.6,19z"></path>
</g>
<g>
	<path class="st0" d="M27.2,71.2v-5.7c0.9,0.6,1.5,1.7,1.5,2.8C28.6,69.5,28.1,70.6,27.2,71.2z"></path>
	<path class="st0" d="M27.2,52.2v-5.7c0.9,0.6,1.5,1.7,1.5,2.8S28.1,51.6,27.2,52.2z"></path>
	<path class="st0" d="M27.2,33.3v-5.7c0.9,0.6,1.5,1.7,1.5,2.9C28.6,31.6,28.1,32.7,27.2,33.3z"></path>
	<path class="st0" d="M83.9,24.4v35.9c0,0.6-0.5,1.1-1.1,1.1c-0.6,0-1.1-0.5-1.1-1.1V24.4c0-0.9-0.7-1.6-1.6-1.6h-4.6v-2.3H80   C82.1,20.5,83.9,22.2,83.9,24.4z"></path>
	<path class="st0" d="M83.9,68.3v16.9c0,2.2-1.8,3.9-3.9,3.9H31.1c-2.1,0-3.9-1.8-3.9-3.9v-3.8h2.3v3.8c0,0.9,0.7,1.6,1.6,1.6H80   c0.9,0,1.6-0.7,1.6-1.6V68.3c0-0.6,0.5-1.1,1.1-1.1C83.4,67.2,83.9,67.7,83.9,68.3z"></path>
</g>
<g>
	<path class="st1" d="M43.9,22.9h-10c-1.3,0-2.3,1-2.3,2.3v10c0,1.3,1.1,2.3,2.3,2.3h10c1.3,0,2.3-1,2.3-2.3v-10   C46.2,23.9,45.2,22.9,43.9,22.9z M44,35.2C44,35.2,44,35.3,44,35.2H33.8l0.1-10.1L44,25.2C44,25.2,44,35.2,44,35.2z"></path>
</g>
<g>
	<path class="st1" d="M65,22.9H55c-1.3,0-2.3,1-2.3,2.3v10c0,1.3,1,2.3,2.3,2.3h10c1.3,0,2.3-1,2.3-2.3v-10   C67.3,23.9,66.3,22.9,65,22.9z M65.1,35.2C65.1,35.2,65,35.3,65.1,35.2H54.9L55,25.1l10.1,0.1V35.2z"></path>
</g>
<g>
	<path class="st0" d="M45.1,42.9H32.7c-0.6,0-1.1-0.5-1.1-1.1c0-0.6,0.5-1.1,1.1-1.1h12.4c0.6,0,1.1,0.5,1.1,1.1   C46.2,42.4,45.7,42.9,45.1,42.9z"></path>
</g>
<g>
	<path class="st0" d="M45.1,47.5H32.7c-0.6,0-1.1-0.5-1.1-1.1c0-0.6,0.5-1.1,1.1-1.1h12.4c0.6,0,1.1,0.5,1.1,1.1   C46.2,47,45.7,47.5,45.1,47.5z"></path>
</g>
<g>
	<path class="st0" d="M66.2,42.9H53.8c-0.6,0-1.1-0.5-1.1-1.1c0-0.6,0.5-1.1,1.1-1.1h12.4c0.6,0,1.1,0.5,1.1,1.1   C67.3,42.4,66.8,42.9,66.2,42.9z"></path>
</g>
<g>
	<path class="st0" d="M66.2,47.5H53.8c-0.6,0-1.1-0.5-1.1-1.1c0-0.6,0.5-1.1,1.1-1.1h12.4c0.6,0,1.1,0.5,1.1,1.1   C67.3,47,66.8,47.5,66.2,47.5z"></path>
</g>
<g>
	<path class="st1" d="M43.9,51.4h-10c-1.3,0-2.3,1-2.3,2.3v10c0,1.3,1.1,2.3,2.3,2.3h10c1.3,0,2.3-1.1,2.3-2.3v-10   C46.2,52.4,45.2,51.4,43.9,51.4z M44,63.7C44,63.7,44,63.8,44,63.7H33.8l0.1-10.1L44,53.7C44,53.7,44,63.7,44,63.7z"></path>
</g>
<g>
	<path class="st1" d="M65,51.4H55c-1.3,0-2.3,1-2.3,2.3v10c0,1.3,1,2.3,2.3,2.3h10c1.3,0,2.3-1.1,2.3-2.3v-10   C67.3,52.4,66.3,51.4,65,51.4z M65.1,63.7C65.1,63.7,65,63.8,65.1,63.7H54.9L55,53.6l10.1,0.1V63.7z"></path>
</g>
<g>
	<path class="st0" d="M45.1,71.4H32.7c-0.6,0-1.1-0.5-1.1-1.1c0-0.6,0.5-1.1,1.1-1.1h12.4c0.6,0,1.1,0.5,1.1,1.1   S45.7,71.4,45.1,71.4z"></path>
</g>
<g>
	<path class="st0" d="M45.1,76H32.7c-0.6,0-1.1-0.5-1.1-1.1c0-0.6,0.5-1.1,1.1-1.1h12.4c0.6,0,1.1,0.5,1.1,1.1S45.7,76,45.1,76z"></path>
</g>
<g>
	<path class="st0" d="M66.2,71.4H53.8c-0.6,0-1.1-0.5-1.1-1.1c0-0.6,0.5-1.1,1.1-1.1h12.4c0.6,0,1.1,0.5,1.1,1.1   C67.3,70.9,66.8,71.4,66.2,71.4z"></path>
</g>
<g>
	<path class="st0" d="M66.2,76H53.8c-0.6,0-1.1-0.5-1.1-1.1c0-0.6,0.5-1.1,1.1-1.1h12.4c0.6,0,1.1,0.5,1.1,1.1   C67.3,75.5,66.8,76,66.2,76z"></path>
</g>
<g>
	<path class="st0" d="M27.2,27.6c-0.6-0.4-1.3-0.7-2.1-0.7h-5.7c-1.9,0-3.5,1.6-3.5,3.5c0,1.9,1.6,3.5,3.5,3.5h5.7   c0.8,0,1.5-0.2,2.1-0.7c0.9-0.7,1.5-1.7,1.5-2.9C28.6,29.3,28.1,28.2,27.2,27.6z M25.1,31.7h-5.7c-0.7,0-1.3-0.6-1.3-1.3   c0-0.7,0.6-1.3,1.3-1.3h5.7c0.7,0,1.3,0.6,1.3,1.3C26.4,31.1,25.8,31.7,25.1,31.7z"></path>
</g>
<g>
	<path class="st0" d="M27.2,46.5c-0.6-0.4-1.3-0.7-2.1-0.7h-5.7c-1.9,0-3.5,1.6-3.5,3.5c0,2,1.6,3.5,3.5,3.5h5.7   c0.8,0,1.5-0.2,2.1-0.7c0.9-0.6,1.5-1.7,1.5-2.9S28.1,47.2,27.2,46.5z M25.1,50.7h-5.7c-0.7,0-1.3-0.6-1.3-1.3s0.6-1.3,1.3-1.3h5.7   c0.7,0,1.3,0.6,1.3,1.3C26.4,50.1,25.8,50.7,25.1,50.7z"></path>
</g>
<g>
	<path class="st0" d="M27.2,65.5c-0.6-0.4-1.3-0.7-2.1-0.7h-5.7c-1.9,0-3.5,1.6-3.5,3.5s1.6,3.5,3.5,3.5h5.7c0.8,0,1.5-0.2,2.1-0.7   c0.9-0.6,1.5-1.7,1.5-2.9C28.6,67.2,28.1,66.1,27.2,65.5z M25.1,69.6h-5.7c-0.7,0-1.3-0.6-1.3-1.3c0-0.7,0.6-1.3,1.3-1.3h5.7   c0.7,0,1.3,0.6,1.3,1.3C26.4,69,25.8,69.6,25.1,69.6z"></path>
</g>
</svg>
