<?xml version="1.0" encoding="UTF-8"?>
<!-- Generator: Adobe Illustrator 26.0.1, SVG Export Plug-In . SVG Version: 6.00 Build 0)  -->
<svg xmlns="http://www.w3.org/2000/svg" xmlns:xlink="http://www.w3.org/1999/xlink" version="1.1" id="Layer_1" x="0px" y="0px" viewBox="0 0 100 100" style="enable-background:new 0 0 100 100;" xml:space="preserve">
<style type="text/css">
	.st0{fill:#3B3B3B;}
	.st1{fill:#F39A4F;}
</style>
<g>
	<path class="st0" d="M47.5,77.4c-0.4,0.1-0.7,0.4-0.8,0.8v0.2c0,0.1,0,0.1,0,0.2c-0.1,4.8-4,8.6-8.8,8.6h-1.7   c-4.9,0-8.8-3.9-8.8-8.8V24.9c0-5.9-4.8-10.7-10.7-10.7h-1C9.9,14.2,5.1,19,5.1,24.9v6.4c0,1.6,1.3,2.9,2.9,2.9h17.6v44.1   c0,5.9,4.8,10.7,10.7,10.7h46.1c5.9,0,10.7-4.8,10.7-10.7v-0.9H47.5z M25.5,32.4H8c-0.6,0-1-0.5-1-1v-6.5c0-4.9,3.9-8.8,8.8-8.8h1   c4.9,0,8.8,4,8.8,8.8C25.5,24.9,25.5,32.4,25.5,32.4z M82.3,87.1H43.9c2.6-1.8,4.3-4.6,4.6-7.9H91C90.6,83.7,86.8,87.1,82.3,87.1z"></path>
</g>
<g>
	<path class="st0" d="M65.8,17.7c-0.1,0-0.2,0-0.3-0.1L63.8,17c-1.5-0.6-3-0.9-4.6-0.9H15.7c-0.5,0-0.9-0.4-0.9-0.9s0.4-0.9,0.9-0.9   h43.5c1.8,0,3.6,0.3,5.2,1l1.7,0.6c0.5,0.2,0.7,0.7,0.5,1.2C66.6,17.5,66.2,17.7,65.8,17.7z"></path>
</g>
<g>
	<path class="st1" d="M42.5,68.2c-0.5,0-0.9-0.2-1.3-0.5c-0.6-0.5-0.9-1.4-0.7-2.2l4.2-14.5c0.1-0.3,0.2-0.5,0.4-0.7L79,9.1   c0.9-1.1,2.1-1.7,3.5-1.9c1.4-0.1,2.7,0.3,3.8,1.2l4.5,3.7c2.2,1.8,2.5,5.1,0.7,7.3L57.7,60.6c-0.2,0.2-0.4,0.4-0.7,0.5l0,0   l-13.6,6.8C43.1,68.1,42.8,68.2,42.5,68.2z M83,9.2c-0.1,0-0.2,0-0.3,0c-0.8,0.1-1.6,0.5-2.2,1.2L46.7,51.6c0,0,0,0,0,0l-4.2,14.5   c0,0,0,0.1,0,0.1c0,0,0.1,0,0.1,0l13.6-6.8l0,0c0,0,0,0,0,0L90,18.2c1.1-1.4,0.9-3.4-0.4-4.5l-4.5-3.7C84.5,9.5,83.8,9.2,83,9.2z"></path>
</g>
<g>
	<rect x="78" y="14.8" transform="matrix(0.6439 -0.7651 0.7651 0.6439 11.4049 68.2549)" class="st1" width="2" height="14.2"></rect>
</g>
<g>
	<rect x="73.1" y="20.8" transform="matrix(0.6416 -0.767 0.767 0.6416 5.1522 66.8212)" class="st1" width="2" height="14.2"></rect>
</g>
<g>
	<rect x="50.4" y="48.4" transform="matrix(0.6345 -0.773 0.773 0.6345 -24.0856 60.0208)" class="st1" width="2" height="14.2"></rect>
</g>
<g>
	<rect x="44.7" y="58.8" transform="matrix(0.6603 -0.751 0.751 0.6603 -31.1944 55.452)" class="st1" width="2" height="6.7"></rect>
</g>
<g>
	<path class="st0" d="M71.1,79.1c-0.6,0-1-0.4-1-1V49.9c0-0.5,0.4-1,1-1s1,0.4,1,1v28.2C72.1,78.6,71.7,79.1,71.1,79.1z"></path>
</g>
<g>
	<path class="st0" d="M32.6,23.8c-0.5,0-1-0.4-1-1s0.4-1,1-1l29.7,0l0,0c0.5,0,1,0.4,1,1s-0.4,1-1,1L32.6,23.8L32.6,23.8z"></path>
</g>
<g>
	<path class="st0" d="M56.2,31.2L56.2,31.2l-23.7-0.1c-0.5,0-1-0.5-1-1c0-0.5,0.4-1,1-1l0,0l23.7,0.1c0.5,0,1,0.5,1,1   C57.2,30.7,56.8,31.2,56.2,31.2z"></path>
</g>
<g>
	<path class="st0" d="M32.6,38.7c-0.5,0-1-0.4-1-1c0-0.5,0.4-1,1-1l17.5-0.1c0,0,0,0,0,0c0.5,0,1,0.4,1,1c0,0.5-0.4,1-1,1L32.6,38.7   C32.6,38.7,32.6,38.7,32.6,38.7z"></path>
</g>
<g>
	<path class="st0" d="M32.6,46c-0.5,0-1-0.4-1-1c0-0.5,0.4-1,1-1L43.9,44l0,0c0.5,0,1,0.4,1,1c0,0.5-0.4,1-1,1L32.6,46L32.6,46z"></path>
</g>
<g>
	<path class="st0" d="M65.2,70.1H32.6c-0.5,0-1-0.4-1-1c0-0.6,0.4-1,1-1h32.7c0.6,0,1,0.4,1,1C66.2,69.6,65.8,70.1,65.2,70.1z"></path>
</g>
<path class="st0" d="M92.9,78.4c0,0.5-0.4,1-1,1c-0.5,0-0.9-0.3-1-0.8c0-0.1,0-0.1,0-0.2s0-0.1,0-0.2c0.1-0.4,0.4-0.7,0.8-0.8  c0.1,0,0.1,0,0.1,0s0.1,0,0.1,0C92.5,77.5,92.9,77.9,92.9,78.4z"></path>
</svg>
