<?xml version="1.0" encoding="UTF-8"?>
<!-- Generator: Adobe Illustrator 26.0.1, SVG Export Plug-In . SVG Version: 6.00 Build 0)  -->
<svg xmlns="http://www.w3.org/2000/svg" xmlns:xlink="http://www.w3.org/1999/xlink" version="1.1" id="Layer_1" x="0px" y="0px" viewBox="0 0 200 200" style="enable-background:new 0 0 200 200;" xml:space="preserve">
<style type="text/css">
	.st0{fill:#3B3B3B;}
	.st1{fill:#F39A4F;}
</style>
<g>
	<path class="st0" d="M76.3,160l1.8-14.7l-0.6-0.3c-1.6-0.9-3.3-1.4-5.2-1.4c-5.5,0-11.6,4.6-12,11.5c-0.1,1.4,0,2.7,0,4.1   c0,0.3,0,0.6,0,1H57c-0.8-8.6,1.7-14.2,7.9-18l1-0.6l-0.7-0.9c-2.2-2.8-3.1-5.5-2.6-8.5c0.3-2.2,1.3-4.1,2.9-5.6   c1.9-1.9,4.4-2.9,7-2.9c1.5,0,3.1,0.4,4.4,1c4.6,2.2,6,6,5,13l-0.3,2.2l6-3.9l-0.5-0.8c-3.6-5.8-3.2-11,1-14.6   c1.8-1.6,4.1-2.4,6.5-2.4c2.4,0,4.8,0.9,6.6,2.5c4.2,3.6,4.4,8.7,0.8,14.5l-0.5,0.8l6.8,4.5l-0.9-2.8c-1-3-1-5.5,0.1-7.9   c1.1-2.5,2.9-4.2,5.3-5.3c1.2-0.5,2.5-0.8,3.9-0.8c3,0,5.9,1.4,7.8,3.7c3.2,3.9,3,8.4-0.5,13.4l-0.6,0.9l0.9,0.6   c6.2,3.7,8.7,9.4,7.9,18h-3.5c0-0.3,0-0.6,0-0.9c0-1.3,0-2.7,0-4c-0.2-6.3-5.7-11.6-12-11.6c-1.9,0-3.6,0.5-5.2,1.4l-0.6,0.3l0.4,3   c0.2,1.7,0.5,3.5,0.7,5.2c0.2,1.7,0.4,3.4,0.6,5.1l0.2,1.4l-3.5,0.4c-0.1-0.7-0.2-1.4-0.2-2.1c-0.3-2.2-0.5-4.5-0.7-6.8   c-0.6-6.7-4.7-11.7-10.5-13c-1.1-0.3-2.2-0.4-3.3-0.4c-7.3,0-12.9,5.5-13.7,13.4c-0.2,2.2-0.5,4.4-0.7,6.7   c-0.1,0.7-0.2,1.4-0.2,2.2L76.3,160z M116.7,127.1c-3.5,0-6.5,2.9-6.5,6.4c-0.1,3.6,2.8,6.6,6.4,6.6h0.2c3.6,0,6.5-2.9,6.5-6.5   C123.2,130,120.3,127.1,116.7,127.1C116.8,127.1,116.7,127.1,116.7,127.1z M72.4,127.1c-3.6,0-6.5,3-6.4,6.5s2.9,6.5,6.5,6.5l0,0   c1.8,0,3.4-0.7,4.7-2c1.2-1.3,1.9-2.9,1.9-4.7C79,129.9,76,127.1,72.4,127.1L72.4,127.1L72.4,127.1z M94.6,121.6   c-3.5,0-6.5,2.9-6.5,6.4c0,1.8,0.6,3.4,1.9,4.7c1.2,1.3,2.9,2,4.6,2c3.6,0,6.5-2.9,6.5-6.5C101.1,124.5,98.2,121.6,94.6,121.6   L94.6,121.6L94.6,121.6z"></path>
</g>
<g>
	<path class="st1" d="M60.7,87.8c-3.8-3.3-7.4-6.6-11.1-9.9c-0.7-0.6-1.4-1.2-2.1-1.8c-1.7-1.5-3.5-3.1-5.2-4.7   c-6.7-6.6-7-17.5-0.7-24.4c2.8-3.1,6.9-4.8,11-4.8c3.3,0,6.5,1.1,9.1,3c0.3,0.2,0.6,0.4,0.9,0.7l1,0.8l0.6-0.4l0.3-0.2   c0.2-0.1,0.5-0.3,0.7-0.4c2.9-2.3,6.3-3.5,9.8-3.5c7.4,0,13.6,5.2,15.1,12.7c1.2,6-0.3,11.4-4.3,16c-0.6,0.7-1.3,1.3-2,1.9   c-5.4,4.8-10.8,9.6-16.3,14.5l-3.5,3.2L60.7,87.8z M63.7,85.6c0.2,0.1,0.3,0,0.4-0.2c0.2-0.1,0.3-0.3,0.5-0.4   c0.6-0.6,1.3-1.2,1.9-1.7c1-0.9,2.1-1.8,3.1-2.8c4.1-3.7,8.4-7.4,12.5-11.2c3.4-3.1,5-7.2,4.6-11.9c-0.5-5.3-3.2-9.1-7.7-10.8   c-1.5-0.6-3-0.9-4.5-0.9c-3.1,0-5.9,1.3-8.4,3.8c-0.7,0.7-1.3,1.3-2,2.1l-0.4,0.5c-0.2-0.2-0.4-0.4-0.6-0.6c-0.9-1-1.7-1.9-2.6-2.7   c-2.2-2-4.9-3.1-7.8-3.1c-3.1,0-6,1.2-8.2,3.4c-2.6,2.6-4,6.1-3.9,9.9c0.1,3.9,1.8,7.7,4.8,10.4c4.1,3.7,8.3,7.5,12.4,11.1   c0.9,0.8,1.8,1.6,2.7,2.4"></path>
</g>
<g>
	<path class="st1" d="M131.3,66.1c3.1-2.8,5.4-6.7,6.7-11.3c0.9-3.3,3.2-5.4,6.4-5.7c0.3,0,0.6,0,0.9,0c2.7,0,5.3,1.2,7.2,3.4   c1.9,2.1,2.7,4.8,2.4,7.4c-0.1,1-0.3,1.9-0.4,2.9l-0.4,2.8h4.4h1.7c2.7,0,5.1,0.9,7,2.8c2.1,2,3.1,4.3,3.1,7.1   c0,5.4,0.1,11.1,0,16.9c-0.1,5.2-3.9,9.5-8.8,9.7l-1.4,0.1c-2.8,0.1-5.6,0.3-8.4,0.3c-4.1,0-7.5-0.3-10.6-0.9   c-1.9-0.4-3.8-1-5.8-1.7c-0.9-0.3-1.9-0.6-2.8-0.9l-0.9-0.3l-0.4,0.8c-0.9,2-2.5,2.9-5.4,2.9c-0.3,0-0.5,0-0.8,0   c-0.9,0-1.9-0.1-3.2-0.1c-0.8,0-1.6,0-2.3,0c-0.8,0-1.6,0-2.3,0h-0.8c-3,0-4.9-1.9-4.9-4.8c0-9.5,0-18.4,0-27.1   c0-2.9,1.9-4.7,4.8-4.8h0.6c1.6,0,3.1,0,4.7,0c1.5,0,3.1,0,4.6,0.1c0.9,0,1.7,0.2,2.8,0.4c0.5,0.1,1.1,0.2,1.7,0.3 M145.2,52.6   c-1.9,0-3.2,1-3.7,2.9c-1.5,5.4-4.4,10.2-8.9,14.4c-0.7,0.7-1,1.7-1,2.5c0,3.5,0,6.9,0,10.4c0,3.2,0,6.3,0,9.4c0,0.5,0,2.2,1.8,2.8   c1,0.3,2.1,0.8,3.1,1.2c2.4,0.9,4.8,1.8,7.3,2.2c3.2,0.4,6.5,0.4,9.6,0.4l4.3,0c0.6,0,1.9,0,1.9,0c4.4,0,7-2.6,7-7.1   c0-4.8,0-9.7,0-14.6v-0.6c0-4.8-2.6-7.4-7.4-7.4h-9.5c0-0.2,0-0.3,0.1-0.5c0.2-1.2,0.4-2.5,0.6-3.8c0.3-1.6,0.6-3.3,0.8-4.9   c0.6-3.4-1.6-6.6-5-7.3C145.9,52.6,145.6,52.6,145.2,52.6z M115.1,98.7h12.8V69.3h-12.8V98.7z"></path>
</g>
<g>
	<path class="st0" d="M70.4,116.8c-0.9,0-1.8-0.4-2.5-1.1l-13.8-13.6c0,0-0.1,0-0.1,0H27.4c-4.7,0-8.6-3.9-8.6-8.6V32.8   c0-4.7,3.9-8.6,8.6-8.6H100c4.7,0,8.6,3.9,8.6,8.6v60.7c0,4.7-3.9,8.6-8.6,8.6H73.9v11.1c0,1.4-0.9,2.7-2.2,3.3   C71.3,116.7,70.8,116.8,70.4,116.8z M70.7,112.9L70.7,112.9C70.7,112.9,70.7,112.9,70.7,112.9z M27.4,28.2c-2.5,0-4.6,2.1-4.6,4.6   v60.7c0,2.5,2.1,4.6,4.6,4.6H54c1.1,0,2.1,0.4,2.9,1.2l13.1,12.9v-11.3c0-1.5,1.3-2.8,2.8-2.8H100c2.5,0,4.6-2.1,4.6-4.6V32.8   c0-2.5-2.1-4.6-4.6-4.6H27.4z"></path>
</g>
<g>
	<path class="st0" d="M94.6,107.3H71.9c-1.1,0-2-0.9-2-2s0.9-2,2-2h22.7c1.1,0,2,0.9,2,2S95.7,107.3,94.6,107.3z"></path>
</g>
<g>
	<path class="st0" d="M101.3,188.8c-0.9,0-1.8-0.4-2.5-1L85,174.2c0,0-0.1,0-0.1,0H55c-4.7,0-8.6-3.9-8.6-8.6v-53.6   c0-4.7,3.9-8.6,8.6-8.6h5.2c1.1,0,2,0.9,2,2s-0.9,2-2,2H55c-2.5,0-4.6,2.1-4.6,4.6v53.6c0,2.5,2.1,4.6,4.6,4.6h29.9   c1.1,0,2.1,0.4,2.9,1.2l13.1,12.9v-11.3c0-1.5,1.3-2.8,2.8-2.8h30.6c2.5,0,4.6-2.1,4.6-4.6v-42.8c0-1.1,0.9-2,2-2s2,0.9,2,2v42.8   c0,4.7-3.9,8.6-8.6,8.6h-29.4v11.1c0,1.4-0.9,2.7-2.2,3.3C102.2,188.7,101.7,188.8,101.3,188.8z M101.6,184.9L101.6,184.9   C101.6,184.9,101.6,184.9,101.6,184.9z"></path>
</g>
<g>
	<path class="st0" d="M134.2,130.7c-0.5,0-0.9-0.1-1.4-0.3c-1.3-0.5-2.2-1.8-2.2-3.3v-11.1h-29.4c-4.7,0-8.6-3.9-8.6-8.6v-7.4   c0-1.1,0.9-2,2-2s2,0.9,2,2v7.4c0,2.5,2.1,4.6,4.6,4.6h30.6c1.5,0,2.8,1.3,2.8,2.8v11.3l13-12.9c0.8-0.8,1.8-1.2,2.9-1.2h29.9   c2.5,0,4.6-2.1,4.6-4.6V48.8c0-2.5-2.1-4.6-4.6-4.6h-73.8c-1.1,0-2-0.9-2-2s0.9-2,2-2h73.8c4.7,0,8.6,3.9,8.6,8.6v58.6   c0,4.7-3.9,8.6-8.6,8.6h-29.9c0,0-0.1,0-0.1,0l-13.8,13.6C136,130.4,135.1,130.7,134.2,130.7z M133.8,126.9   C133.8,126.9,133.8,126.9,133.8,126.9L133.8,126.9z"></path>
</g>
</svg>
