<?xml version="1.0" encoding="UTF-8"?>
<!-- Generator: Adobe Illustrator 26.0.1, SVG Export Plug-In . SVG Version: 6.00 Build 0)  -->
<svg xmlns="http://www.w3.org/2000/svg" xmlns:xlink="http://www.w3.org/1999/xlink" version="1.1" id="Layer_1" x="0px" y="0px" viewBox="0 0 200 200" style="enable-background:new 0 0 200 200;" xml:space="preserve">
<style type="text/css">
	.st0{fill:#3B3B3B;}
	.st1{fill:#F39A4F;}
</style>
<g>
	<path class="st0" d="M99.9,44.9c30.5,0.1,55.3,25.1,55.1,55.4c-0.2,30.5-25,55.1-55.2,55.1c-30.4-0.1-55.3-25-55.2-55.3   C44.7,69.7,69.6,44.8,99.9,44.9z M151.2,100.2c0-28.4-22.9-51.3-51.3-51.4c-28.4-0.1-51.5,22.9-51.5,51.4   c0,28.4,22.9,51.3,51.3,51.4C128.1,151.7,151.2,128.6,151.2,100.2z"></path>
</g>
<path class="st1" d="M78.6,123.5c0.3-5,0.6-10,0.7-15c0-0.8-0.3-1.8-0.8-2.4c-3.6-4.6-7.3-9-10.9-13.5c-2.1-2.6-1.8-3.6,1.5-4.5  c5.5-1.5,11.1-2.9,16.6-4.5c0.9-0.2,1.8-0.9,2.4-1.7c3.3-4.8,6.4-9.8,9.6-14.7c1.5-2.3,2.8-2.3,4.4,0c3.2,4.8,6.3,9.7,9.5,14.5  c0.6,0.8,1.6,1.5,2.5,1.8c5.6,1.6,11.2,3,16.8,4.5c3,0.8,3.3,1.9,1.4,4.3c-3.6,4.5-7.3,9-10.9,13.5c-0.5,0.7-0.9,1.7-0.9,2.6  c0.2,5.9,0.5,11.8,0.9,17.7c0.2,2.7-0.9,3.5-3.4,2.5c-5.3-2-10.7-4.1-16-6.2c-1.3-0.5-2.5-0.6-3.8,0c-5.3,2.1-10.7,4.1-16,6.2  c-2.8,1-3.7,0.3-3.5-2.7C78.5,125.2,78.5,124.4,78.6,123.5C78.6,123.5,78.6,123.5,78.6,123.5z M117.4,124.7  c-0.3-5.8-0.7-11.2-0.8-16.7c0-1.2,0.4-2.5,1.1-3.4c1.9-2.7,4.1-5.1,6.2-7.7c1.4-1.7,2.8-3.5,4.4-5.4c-5.7-1.5-11.1-2.9-16.5-4.4  c-0.9-0.3-2-1-2.5-1.8c-2.9-4.2-5.6-8.4-8.3-12.7c-0.3-0.5-0.7-0.9-1.1-1.6c-2.6,4.1-5.3,7.8-7.6,11.7c-1.7,2.9-3.8,4.5-7.2,5.2  c-4.5,0.9-8.9,2.3-13.6,3.6c0.5,0.7,0.8,1.1,1.2,1.6c3.1,3.8,6.1,7.6,9.2,11.3c0.9,1.1,1.3,2.2,1.2,3.7c-0.4,5.5-0.6,10.9-0.9,16.6  c0.7-0.2,1.3-0.4,1.8-0.6c4.6-1.8,9.2-3.5,13.8-5.3c1.4-0.6,2.5-0.5,3.8,0C106.9,120.7,112,122.6,117.4,124.7z"></path>
<g>
	<path class="st0" d="M108.1,176.6c-1,0-1.9-0.8-2-1.8c-0.1-1.1,0.7-2.1,1.8-2.2c3.2-0.4,6.4-0.9,9.6-1.7c1.1-0.3,2.2,0.4,2.4,1.5   c0.3,1.1-0.4,2.2-1.5,2.4c-3.3,0.8-6.7,1.4-10.1,1.8C108.2,176.6,108.2,176.6,108.1,176.6z M87.2,176c-0.1,0-0.2,0-0.3,0   c-3.4-0.6-6.7-1.4-10-2.4c-1.1-0.3-1.6-1.5-1.3-2.5c0.3-1.1,1.5-1.6,2.5-1.3c3.1,1,6.3,1.7,9.5,2.3c1.1,0.2,1.8,1.2,1.6,2.3   C89,175.3,88.1,176,87.2,176z M137.3,167c-0.7,0-1.4-0.4-1.7-1c-0.6-1-0.2-2.2,0.7-2.7c2.8-1.6,5.5-3.4,8.1-5.4   c0.9-0.7,2.1-0.5,2.8,0.4c0.7,0.9,0.5,2.1-0.4,2.8c-2.7,2.1-5.6,4-8.5,5.7C138,166.9,137.7,167,137.3,167z M58.6,164.6   c-0.4,0-0.8-0.1-1.1-0.3c-2.8-1.9-5.6-4-8.2-6.2c-0.8-0.7-0.9-2-0.2-2.8s2-0.9,2.8-0.2c2.4,2.1,5,4.1,7.7,5.9   c0.9,0.6,1.2,1.9,0.6,2.8C59.8,164.3,59.2,164.6,58.6,164.6z M160.2,146.4c-0.4,0-0.8-0.1-1.2-0.4c-0.9-0.7-1.1-1.9-0.4-2.8   c1.9-2.6,3.7-5.4,5.2-8.2c0.5-1,1.7-1.3,2.7-0.8c1,0.5,1.3,1.7,0.8,2.7c-1.6,3-3.5,5.9-5.5,8.7   C161.4,146.1,160.8,146.4,160.2,146.4z M36.9,142.7c-0.7,0-1.3-0.3-1.7-0.9c-1.9-2.9-3.5-5.9-5-9c-0.5-1,0-2.2,1-2.7   c1-0.5,2.2,0,2.7,1c1.4,2.9,3,5.8,4.7,8.5c0.6,0.9,0.3,2.2-0.6,2.8C37.7,142.6,37.3,142.7,36.9,142.7z M172.9,118.4   c-0.1,0-0.3,0-0.4,0c-1.1-0.2-1.8-1.3-1.5-2.4c0.7-3.1,1.2-6.4,1.5-9.6c0.1-1.1,1.1-1.9,2.2-1.8c1.1,0.1,1.9,1.1,1.8,2.2   c-0.3,3.4-0.8,6.8-1.5,10.1C174.7,117.8,173.8,118.4,172.9,118.4z M25.9,114c-1,0-1.8-0.7-2-1.7c-0.5-3.4-0.8-6.8-0.9-10.2   c0-1.1,0.8-2,1.9-2c1.1,0,2,0.8,2,1.9c0.1,3.2,0.4,6.5,0.9,9.7c0.2,1.1-0.6,2.1-1.7,2.3C26.1,114,26,114,25.9,114z M173.3,87.6   c-0.9,0-1.8-0.7-2-1.6c-0.6-3.2-1.5-6.3-2.5-9.4c-0.4-1,0.2-2.2,1.2-2.5c1-0.4,2.2,0.2,2.5,1.2c1.1,3.2,2,6.6,2.7,9.9   c0.2,1.1-0.5,2.1-1.6,2.3C173.5,87.6,173.4,87.6,173.3,87.6z M27.4,83.3c-0.2,0-0.3,0-0.5-0.1c-1.1-0.3-1.7-1.4-1.4-2.4   c0.9-3.3,2-6.6,3.2-9.7c0.4-1,1.6-1.5,2.6-1.1c1,0.4,1.5,1.6,1.1,2.6c-1.2,3-2.3,6.1-3.1,9.2C29.1,82.7,28.3,83.3,27.4,83.3z    M161.2,59.3c-0.6,0-1.3-0.3-1.6-0.9c-1.8-2.6-3.9-5.2-6.1-7.6c-0.7-0.8-0.7-2.1,0.1-2.8c0.8-0.7,2.1-0.7,2.8,0.1   c2.3,2.5,4.5,5.2,6.4,8c0.6,0.9,0.4,2.2-0.5,2.8C162,59.2,161.6,59.3,161.2,59.3z M41.1,55.7c-0.4,0-0.9-0.1-1.2-0.4   c-0.9-0.7-1-1.9-0.3-2.8c2.1-2.7,4.4-5.2,6.9-7.6c0.8-0.8,2.1-0.7,2.8,0c0.8,0.8,0.7,2.1,0,2.8c-2.3,2.2-4.5,4.7-6.5,7.2   C42.3,55.5,41.7,55.7,41.1,55.7z M138.8,38.2c-0.4,0-0.7-0.1-1-0.3c-2.8-1.7-5.7-3.2-8.6-4.5c-1-0.4-1.5-1.6-1-2.6   c0.4-1,1.6-1.5,2.6-1c3.1,1.4,6.2,3,9.1,4.8c0.9,0.6,1.2,1.8,0.7,2.7C140.1,37.9,139.5,38.2,138.8,38.2z M64.7,36   C64,36,63.3,35.6,63,35c-0.5-1-0.1-2.2,0.8-2.7c3-1.6,6.2-3,9.4-4.2c1-0.4,2.2,0.1,2.6,1.2s-0.1,2.2-1.2,2.6c-3,1.1-6,2.5-8.9,4   C65.4,35.9,65,36,64.7,36z M109.8,28c-0.1,0-0.2,0-0.3,0c-3.2-0.4-6.5-0.6-9.7-0.6c-1.7,0-3.6,0.1-5.4,0.2   c-1.1,0.1-2.1-0.7-2.1-1.8c-0.1-1.1,0.7-2.1,1.8-2.1c1.9-0.1,3.8-0.2,5.7-0.2c0,0,0,0,0,0c3.4,0,6.9,0.2,10.2,0.7   c1.1,0.1,1.9,1.2,1.7,2.2C111.6,27.2,110.8,28,109.8,28z"></path>
</g>
</svg>
