<?xml version="1.0" encoding="UTF-8"?>
<!-- Generator: Adobe Illustrator 26.0.1, SVG Export Plug-In . SVG Version: 6.00 Build 0)  -->
<svg xmlns="http://www.w3.org/2000/svg" xmlns:xlink="http://www.w3.org/1999/xlink" version="1.1" id="Layer_1" x="0px" y="0px" viewBox="0 0 200 200" style="enable-background:new 0 0 200 200;" xml:space="preserve">
<style type="text/css">
	.st0{fill:#3B3B3B;}
	.st1{fill:#F39A4F;stroke:#F39A4F;stroke-miterlimit:10;}
	.st2{fill:#F39A4F;}
</style>
<g>
	<path class="st0" d="M88.9,138.9c-1.1,0-1.3-1.1-1.3-2c0-5.1,0-9.8,0-14.2c0-1.7-0.6-3-1.8-4c-7.5-6.3-15-12.6-22.5-18.8   c-6.3-5.3-12.7-10.6-19.1-16c-0.8-0.6-1.7-1.2-2.7-1.5c-2.3-0.9-3.6-2.7-3.7-5.1c0-1,0-2,0-3.1c0-0.7,0-1.3,0-2   c0-1.9,0.8-3.4,2.4-4.7c0.7-0.5,1.5-1.6,1.5-2.7c0.2-7.6,3.5-13.2,10.2-17c0.3-0.2,0.5-0.4,0.6-0.5l1-0.9l-0.7-1.2   c-2.6-4.2-4.4-10.2,1.2-15c1.8-1.5,4.2-2.4,6.6-2.4c2.5,0,5,0.9,6.9,2.5c3.6,3.1,5.4,8.9,1.2,14.7l-1.1,1.4l1.4,1   c6.6,4.6,7.1,5.6,9.7,11.2l2,4.3l1.4-3.9c1.8-5.1,5-8.8,9.7-11.3l1.8-1l-1.2-1.6c-2.3-3-3.1-6.1-2.2-9.4c0.6-2.4,1.9-4.4,3.9-5.8   c1.8-1.3,3.9-2,6.2-2c2.7,0,5.3,1,7.3,3c2.5,2.4,5.4,8.1,0.6,14.3l-1.2,1.6l1.7,0.9c4.8,2.6,8,6.4,9.7,11.5l1.6,4.6l1.7-4.6   c1.9-5.3,5.1-9.1,9.8-11.5l1.8-0.9l-1.2-1.6c-2.2-2.8-3-5.7-2.4-8.8c0.5-2.5,1.7-4.5,3.7-6.2c1.8-1.5,4.2-2.3,6.6-2.3   c2.6,0,5,0.9,6.9,2.6c3.6,3.2,5.1,9.3,1,14.7l-1.2,1.6l1.8,0.9c4.4,2.4,7.3,5.4,8.8,9.2c0.7,1.8,1.1,3.8,1.4,6   c0.1,0.7,0.2,1.3,0.3,2l0,0.2c0.1,0.7,0.3,1.8,1.6,2.7c1.5,1,2.3,2.5,2.3,4.5c0,1.9,0,3.4,0,4.9c0,2.5-1.4,4.4-3.8,5.3   c-0.9,0.3-1.7,0.8-2.3,1.3c-6.3,5.3-12.6,10.5-18.9,15.8c-7.6,6.4-15.3,12.8-22.9,19.2c-1.3,1.1-1.9,2.4-1.9,4c0,4,0,8,0,11.9v2.2   c0,1.4-0.4,2.1-1.3,2.1c-0.4,0-1-0.1-1.5-0.4c-3.3-1.6-6.7-2.5-10-2.5c-3.4,0-6.8,0.9-10.2,2.6C89.8,138.8,89.3,138.9,88.9,138.9z    M51.8,86.3c0.3,0.3,0.6,0.5,0.9,0.8l9,7.5c8.5,7.1,17.3,14.5,25.9,21.7c2.1,1.7,3,3.7,2.9,6.3c-0.1,2.3,0,4.5,0,6.8   c0,1,0,2.1,0,3.1v2.3l2.2-0.7c2.6-0.8,5.2-1.2,7.7-1.2c2.6,0,5.1,0.4,7.6,1.2l2.2,0.7V128c0-2,0-4.1,0-6.1c0-2.2,0.8-3.8,2.5-5.2   c8.9-7.4,17.8-14.9,26.7-22.4l8.2-6.9c0.4-0.3,0.8-0.7,1.2-1l4.1-3.5H47.8L51.8,86.3z M156.9,79.6c0.1,0,0.2,0,0.4,0l0,0   c1,0,1.6-0.4,2-0.8c0.5-0.5,0.8-1.3,0.8-2.2c0-0.7,0-1.3,0-2v-1.2c0-2.9-0.8-3.7-3.7-3.7H46.9c-2.5,0-3.9,0-5,1c-1,1-1,2.4-1,5   c0,3.1,0.8,3.9,3.9,3.9h111.4l0.6,0C156.8,79.6,156.9,79.6,156.9,79.6z M60.7,48.6c-3.1,0-6.2,1-9.1,3c-4.4,3-6.7,7.5-6.8,13.3   l0,1.7h32.1l-0.1-1.8c-0.2-6.5-3-11.3-8.4-14.2C65.8,49.3,63.2,48.6,60.7,48.6z M100.4,48.6c-3,0-6,1-8.8,2.8   c-4.7,3.1-7.1,7.6-7.1,13.5v1.7h31.9l0-1.7c-0.1-6-2.6-10.6-7.4-13.6C106.2,49.5,103.3,48.6,100.4,48.6z M140.1,48.6   c-2.9,0-5.8,0.9-8.5,2.6c-4.8,3-7.3,7.6-7.5,13.6l-0.1,1.8h32.1l-0.1-1.8c-0.2-6.3-2.8-11-7.9-13.9   C145.5,49.4,142.8,48.6,140.1,48.6z M60.7,30.8c-4.1,0-7.3,3.3-7.3,7.4c0,4.1,3.3,7.4,7.4,7.4c4.1,0,7.4-3.3,7.4-7.4   c0-2-0.8-3.9-2.2-5.3C64.6,31.6,62.7,30.8,60.7,30.8L60.7,30.8C60.8,30.8,60.7,30.8,60.7,30.8z M139.9,30.8   c-4.1,0.1-7.3,3.4-7.3,7.5c0,4,3.4,7.3,7.4,7.3c4.1,0,7.4-3.4,7.4-7.4c0-4.1-3.3-7.4-7.4-7.4L139.9,30.8z M100.4,30.8   c-4,0-7.4,3.4-7.4,7.4c0,4,3.4,7.4,7.4,7.4l0,0c4.1,0,7.4-3.3,7.5-7.3s-3.2-7.4-7.3-7.5L100.4,30.8z"></path>
	<path class="st0" d="M88.9,139.4c-0.5,0-1.8-0.2-1.8-2.5c0-5.5,0-10,0-14.2c0-1.6-0.5-2.7-1.6-3.6c-7.5-6.3-15-12.5-22.5-18.8   c-6.3-5.3-12.7-10.6-19.1-16c-0.7-0.6-1.6-1.1-2.5-1.4c-2.5-0.9-3.9-2.9-4-5.5c0-0.8,0-1.5,0-2.3l0-2.8c0-2.1,0.8-3.7,2.6-5.1   c0.6-0.5,1.3-1.4,1.3-2.3c0.2-7.8,3.6-13.5,10.4-17.4c0.2-0.1,0.4-0.3,0.5-0.4l0.8-0.7l-0.5-0.8c-2.7-4.4-4.6-10.7,1.4-15.6   c1.9-1.6,4.4-2.5,7-2.5c2.6,0,5.2,0.9,7.2,2.7c3.7,3.2,5.7,9.4,1.2,15.4l-0.7,1l1,0.7c6.7,4.6,7.2,5.8,9.9,11.4l1.5,3.2l1-2.7   c1.8-5.2,5.1-9,10-11.6l1.3-0.7l-0.9-1.1c-2.4-3.1-3.2-6.3-2.3-9.8c0.6-2.5,2-4.6,4.1-6.1c1.9-1.4,4.1-2.1,6.5-2.1   c2.8,0,5.6,1.1,7.6,3.1c2.6,2.5,5.6,8.5,0.7,15l-0.8,1.1l1.2,0.7c4.9,2.7,8.2,6.5,10,11.8l1.1,3.3l1.2-3.2c2-5.5,5.2-9.3,10.1-11.8   l1.3-0.7l-0.9-1.1c-2.3-3-3.1-6-2.5-9.2c0.5-2.6,1.8-4.7,3.9-6.5c1.9-1.6,4.4-2.4,6.9-2.4c2.7,0,5.3,1,7.2,2.7   c3.8,3.3,5.4,9.7,1.1,15.4l-0.9,1.1l1.2,0.7c4.5,2.4,7.5,5.5,9,9.5c0.7,1.9,1.1,3.9,1.4,6.1c0.1,0.7,0.2,1.3,0.3,2l0,0.3   c0.1,0.7,0.3,1.6,1.4,2.4c1.7,1.1,2.5,2.7,2.5,4.9c0,1.9,0,3.4,0,4.9c0,2.7-1.5,4.8-4.1,5.7c-0.8,0.3-1.6,0.7-2.1,1.2   c-6.3,5.3-12.6,10.5-18.9,15.8c-7.6,6.4-15.3,12.8-22.9,19.2c-1.2,1-1.7,2.1-1.7,3.6c0,4,0,8,0,11.9v2.2c0,2.3-1.1,2.7-1.8,2.7   c-0.5,0-1.1-0.2-1.8-0.5c-6.6-3.2-13.3-3.2-19.8,0.1C89.8,139.3,89.3,139.4,88.9,139.4z M60.7,28.3c-2.3,0-4.6,0.8-6.3,2.3   C49,35.1,50.8,40.9,53.3,45l0.9,1.5l-1.3,1.2c-0.2,0.2-0.4,0.4-0.7,0.6c-6.5,3.7-9.8,9.1-9.9,16.6c0,1.3-0.9,2.5-1.7,3.1   c-1.5,1.1-2.2,2.5-2.2,4.3l0,2.8c0,0.8,0,1.5,0,2.3c0,2.1,1.2,3.8,3.3,4.6c1,0.4,2,1,2.8,1.6c6.4,5.3,12.7,10.6,19.1,16   c7.5,6.3,15,12.6,22.5,18.8c1.4,1.2,2,2.6,2,4.4c0,4.2,0,8.7,0,14.2c0,1.5,0.6,1.5,0.8,1.5c0.2,0,0.6-0.1,1.2-0.3   c6.7-3.4,13.8-3.5,20.6-0.1c0.5,0.2,1,0.4,1.3,0.4c0.2,0,0.8,0,0.8-1.7v-2.2c0-3.9,0-7.9,0-11.9c0-1.8,0.6-3.2,2.1-4.4   c7.7-6.4,15.3-12.8,22.9-19.2c6.3-5.3,12.6-10.5,18.9-15.8c0.7-0.6,1.5-1,2.4-1.4c2.2-0.8,3.4-2.5,3.4-4.8c0-1.5,0-3,0-4.9   c0-1.8-0.7-3.1-2.1-4.1c-1.4-1-1.7-2.3-1.8-3l0-0.3c-0.1-0.6-0.2-1.3-0.3-2c-0.4-2.1-0.7-4.1-1.4-5.9c-1.5-3.7-4.3-6.7-8.5-9   l-2.3-1.2l1.6-2.1c3.9-5.2,2.5-11-0.9-14c-1.8-1.6-4.1-2.5-6.6-2.5c-2.3,0-4.5,0.8-6.2,2.2c-1.9,1.6-3.1,3.5-3.5,5.9   c-0.6,2.9,0.2,5.7,2.3,8.4l1.6,2.1l-2.3,1.2c-4.6,2.4-7.7,6-9.6,11.3l-2.1,5.9l-2-6c-1.7-5-4.8-8.7-9.5-11.3l-2.3-1.2l1.6-2   c4.5-6,1.8-11.4-0.6-13.7c-1.9-1.8-4.3-2.8-6.9-2.8c-2.1,0-4.1,0.7-5.9,1.9c-1.9,1.4-3.2,3.3-3.8,5.6c-0.8,3.2-0.1,6.1,2.1,9   l1.6,2.1l-2.3,1.2c-4.6,2.5-7.7,6.1-9.5,11.1l-1.8,5l-2.6-5.4c-2.6-5.5-3.1-6.5-9.6-11L67,46.6l1.4-1.8c4.1-5.5,2.3-11.1-1.1-14   C65.5,29.2,63.1,28.3,60.7,28.3z M90,135.5v-3c0-1.1,0-2.1,0-3.1c0-2.4,0-4.6,0-6.8c0.1-2.5-0.8-4.3-2.8-5.9   c-8.4-7-16.7-14-25.9-21.7l-8.9-7.5c-0.2-0.2-0.5-0.4-0.8-0.7l-5.1-4.5h107.9l-5.3,4.6c-0.4,0.3-0.7,0.6-1,0.9l-12.4,10.4   c-7.5,6.3-15,12.6-22.5,18.9c-1.6,1.3-2.3,2.8-2.3,4.8c0,2,0,4.1,0,6.1v7.5l-2.8-0.9c-5.1-1.6-9.9-1.6-15.1,0L90,135.5z M49.2,83.3   l3.1,2.7c0.3,0.2,0.5,0.5,0.8,0.7l9,7.5c9.2,7.8,17.5,14.7,25.9,21.7c2.2,1.8,3.2,3.9,3.1,6.7c0,2.3,0,4.5,0,6.8c0,1,0,2.1,0,3.1   v1.6l1.6-0.5c5.3-1.6,10.3-1.6,15.6,0l1.6,0.5V128c0-2,0-4.1,0-6.1c0-2.3,0.9-4.1,2.7-5.6c7.5-6.3,15-12.6,22.5-18.9L147.5,87   c0.3-0.3,0.6-0.6,1-0.9l3.3-2.8H49.2z M157.3,80.1c-0.1,0-0.3,0-0.4,0l-0.1,0l-0.6,0H44.8c-3.4,0-4.4-1-4.4-4.4   c0-2.6,0-4.1,1.2-5.3c1.2-1.2,2.7-1.2,5.3-1.2h109.4c3.2,0,4.2,1,4.2,4.2v1.2c0,0.7,0,1.4,0,2c0,1.1-0.3,1.9-0.9,2.6   C159.2,79.6,158.4,80.1,157.3,80.1z M157,79.1c0.8,0.1,1.4-0.1,1.9-0.6c0.4-0.4,0.6-1.1,0.6-1.8c0-0.7,0-1.4,0-2v-1.2   c0-2.6-0.5-3.2-3.2-3.2H46.9c-2.5,0-3.7,0-4.6,0.9c-0.9,0.9-0.9,2.1-0.9,4.6c0,2.9,0.5,3.4,3.4,3.4h111.4l0.6,0c0,0,0,0,0,0   C156.8,79.1,156.9,79.1,157,79.1z M116.9,67.1H84v-2.2c0-6,2.5-10.7,7.3-13.9c5.7-3.8,12.1-3.9,18-0.2c5,3.1,7.5,7.8,7.6,14   L116.9,67.1z M85,66.1h30.9l0-1.2c-0.1-5.8-2.5-10.3-7.1-13.2c-5.6-3.5-11.5-3.4-16.9,0.2c-4.5,3-6.8,7.4-6.8,13.1V66.1z    M77.3,67.1H44.2l0-2.2c0.1-5.9,2.5-10.5,7.1-13.7c5.4-3.7,11.5-4.1,17.3-1c5.5,3,8.4,7.9,8.7,14.6L77.3,67.1z M45.2,66.1h31l0-1.2   c-0.2-6.3-2.9-11-8.1-13.8C62.6,48.2,57,48.5,51.9,52c-4.3,3-6.5,7.3-6.6,12.9L45.2,66.1z M156.6,67.1h-33.1l0.1-2.3   c0.2-6.2,2.8-10.9,7.7-14c5.5-3.5,11.6-3.6,17.1-0.3c5.2,3.1,8,7.9,8.1,14.3L156.6,67.1z M124.6,66.1h31.1l0-1.2   c-0.2-6.1-2.7-10.6-7.7-13.5c-5.3-3.1-10.9-3-16.1,0.3c-4.6,2.9-7.1,7.4-7.2,13.2L124.6,66.1z M60.7,46.2c-4.3,0-7.9-3.6-7.9-7.9   c0-4.4,3.4-7.9,7.8-7.9h0.1c2.1,0,4.1,0.8,5.6,2.3c1.5,1.5,2.3,3.5,2.3,5.7C68.6,42.7,65.1,46.2,60.7,46.2z M60.7,30.8l0,0.5   c-3.8,0-6.8,3.1-6.8,6.9c0,3.8,3.1,6.9,6.9,6.9c3.8,0,6.9-3.1,6.9-6.9c0-1.9-0.7-3.6-2-5c-1.3-1.3-3-2-4.9-2L60.7,30.8z    M140.1,46.2c-4.3,0-7.9-3.5-7.9-7.8c0-4.4,3.4-7.9,7.7-8l0.2,0h0c4.4,0,7.9,3.6,7.9,7.9C148,42.6,144.5,46.1,140.1,46.2z    M140.1,31.3l-0.2,0c-3.8,0.1-6.8,3.2-6.8,7c0,3.8,3.1,6.9,6.9,6.9c3.8,0,7-3.2,7-6.9C147,34.4,143.9,31.3,140.1,31.3z M100.4,46.2   c-4.3,0-7.9-3.7-7.9-7.9c0-4.3,3.6-7.9,7.9-7.9l0.2,0c4.4,0.1,7.9,3.7,7.8,8C108.3,42.7,104.7,46.2,100.4,46.2z M100.4,31.3   c-3.7,0-6.9,3.2-6.9,6.9c0,3.7,3.2,6.9,6.9,6.9c3.8,0,6.9-3.1,7-6.8c0.1-3.8-3-6.9-6.8-7L100.4,31.3z"></path>
</g>
<path class="st1" d="M44.5,177.2c-0.8,0-1.5-0.6-1.9-1.2c-2.8-3.4-5.7-6.8-8.5-10.3c-2.7-3.2-5.3-6.5-8-9.7c-1-1.2-0.9-2-0.6-2.6  c0.3-0.7,0.8-1.3,2.5-1.3h9c0,0,0-10.8,0-14.4c0-8.4,0-17.1,0-25.6c0-4.7,3.9-7.6,7.5-7.6c1.3,0,2.6,0.3,3.8,1  c2.6,1.5,3.9,3.8,3.9,7.1v39.4h6.2c1,0,2,0,3,0c1.5,0,2,0.7,2.3,1.3c0.3,0.6,0.4,1.4-0.5,2.5l-5.1,6.2c-3.8,4.6-7.6,9.2-11.4,13.8  C46.1,176.6,45.4,177.2,44.5,177.2z M44.6,173.7l15.3-18.5h-7.3c-3,0-3.5-0.5-3.5-3.5v-38.4c0-0.5,0-1-0.1-1.6  c-0.2-2.2-1.9-3.8-4.1-4c-0.1,0-0.3,0-0.4,0c-2,0-3.8,1.4-4.3,3.3c-0.2,0.8-0.2,1.6-0.2,2.3c0,6.3,0,12.7,0,19c0,6.7,0,13.4,0,20.1  c0,2.1-0.7,2.8-2.8,2.8h-7.9L44.6,173.7z"></path>
<path class="st1" d="M155.5,177.2c-0.6,0-1.3-0.4-1.8-1c-4.3-5.2-8.6-10.4-12.9-15.6l-3.9-4.7c-0.9-1.1-0.7-1.8-0.5-2.4  c0.3-0.6,0.8-1.3,2.2-1.3c1,0,2,0,3,0l6.3,0v-13.8c0-8.6,0-17.2,0-25.8c0-3.7,2.1-6.7,5.4-7.7c0.7-0.2,1.5-0.3,2.2-0.3  c4.2,0,7.5,3.3,7.5,7.5c0,8.6,0,17.3,0,25.7l0,14.3h1.7c0.8,0,1.6,0,2.4,0c0.8,0,1.5,0,2.3,0c1,0,1.9,0,2.9,0c0.9,0,1.6,0.3,2,0.8  c0.4,0.5,0.4,1.1,0.4,1.6c-0.1,0.4-0.3,0.9-0.6,1.3c-6.4,7.8-11.8,14.3-16.9,20.4C156.9,176.7,156.3,177.2,155.5,177.2z   M155.5,173.7l15.3-18.5h-7.4c-2.7,0-3.3-0.6-3.3-3.2v-38.6c0-5.2-3.4-5.7-4.5-5.7h-0.1c-1.1,0-4.5,0.4-4.5,5.7v12.2  c0,8.8,0,17.7,0,26.5c0,2.4-0.7,3.1-3,3.1h-7.7L155.5,173.7z"></path>
<path class="st2" d="M99.9,178.7v-3.6L99,175c-2.7-0.2-5.4-0.9-7.1-2l1-2.2c1.7,1,3.8,1.7,5.9,1.9l1.1,0.1v-7.5l-0.8-0.2  c-3.9-0.9-7.1-2-7.1-5.9c0-3.4,2.6-5.7,6.9-6.2l0.9-0.1v-3.6h1.3v3.6l0.9,0.1c2.1,0.2,4.1,0.7,5.6,1.5l-0.9,2.3  c-1.5-0.7-3-1.1-4.5-1.3l-1.1-0.1v7.6l0.8,0.2c3.7,0.9,7,2,7,5.8c0,3.3-2.6,5.6-6.9,6.1l-0.9,0.1v3.6L99.9,178.7L99.9,178.7z   M101.3,172.8l1.2-0.3c2.9-0.6,3.2-2.5,3.2-3.3c0-2.2-2.2-2.9-3.1-3.2l-1.3-0.5V172.8z M98.7,155.5c-2.9,0.7-3.2,2.6-3.2,3.4  c0,2.2,2.3,2.9,3.2,3.2l1.3,0.4v-7.4L98.7,155.5z"></path>
</svg>
