<?xml version="1.0" encoding="UTF-8"?>
<!-- Generator: Adobe Illustrator 26.0.1, SVG Export Plug-In . SVG Version: 6.00 Build 0)  -->
<svg xmlns="http://www.w3.org/2000/svg" xmlns:xlink="http://www.w3.org/1999/xlink" version="1.1" id="Layer_1" x="0px" y="0px" viewBox="0 0 200 200" style="enable-background:new 0 0 200 200;" xml:space="preserve">
<style type="text/css">
	.st0{fill:#3B3B3B;}
	.st1{fill:#F39A4F;}
</style>
<g>
	<path class="st0" d="M179.1,104.7c-0.5,0-1-0.2-1.4-0.6c-25.9-26.4-53.3-39.3-81.3-38.2c-44.1,1.7-75,37.8-75.3,38.1   c-0.7,0.8-2,1-2.8,0.2c-0.8-0.7-1-2-0.2-2.8c0.3-0.4,32.3-37.8,78.2-39.5c29.2-1.1,57.6,12.2,84.3,39.4c0.8,0.8,0.8,2.1,0,2.8   C180.1,104.5,179.6,104.7,179.1,104.7z"></path>
</g>
<g>
	<path class="st0" d="M99.6,143.6c-1.1,0-2.3,0-3.4-0.1c-45.8-1.8-77.8-39.2-78.2-39.5c-0.7-0.8-0.6-2.1,0.2-2.8   c0.8-0.7,2.1-0.6,2.8,0.2c0.3,0.4,31.2,36.5,75.3,38.1c28,1.1,55.4-11.8,81.3-38.2c0.8-0.8,2-0.8,2.8,0c0.8,0.8,0.8,2,0,2.8   C154.8,130.3,127.6,143.6,99.6,143.6z"></path>
</g>
<g>
	<path class="st0" d="M99.2,143.4c-22.4,0-40.7-18.3-40.7-40.7C58.5,80.2,76.8,62,99.2,62c22.4,0,40.7,18.3,40.7,40.7   C140,125.1,121.7,143.4,99.2,143.4z M99.2,66C79,66,62.5,82.4,62.5,102.7c0,20.2,16.5,36.7,36.7,36.7s36.7-16.5,36.7-36.7   C136,82.4,119.5,66,99.2,66z"></path>
</g>
<g>
	<path class="st1" d="M99.2,116.7c-7.7,0-14-6.3-14-14c0-7.7,6.3-14,14-14c7.7,0,14,6.3,14,14C113.2,110.4,106.9,116.7,99.2,116.7z    M99.2,92.7c-5.5,0-10,4.5-10,10s4.5,10,10,10c5.5,0,10-4.5,10-10S104.7,92.7,99.2,92.7z"></path>
</g>
<g>
	<g>
		<path class="st1" d="M99.2,43.7c-1.1,0-2-0.9-2-2V22.6c0-1.1,0.9-2,2-2s2,0.9,2,2v19.1C101.2,42.8,100.3,43.7,99.2,43.7z"></path>
	</g>
	<g>
		<path class="st1" d="M69.2,51.2c-0.7,0-1.4-0.4-1.8-1.1l-9-16.9c-0.5-1-0.1-2.2,0.8-2.7c1-0.5,2.2-0.1,2.7,0.8l9,16.9    c0.5,1,0.1,2.2-0.8,2.7C69.8,51.1,69.5,51.2,69.2,51.2z"></path>
	</g>
	<g>
		<path class="st1" d="M129.3,51.2c-0.3,0-0.6-0.1-0.9-0.2c-1-0.5-1.3-1.7-0.8-2.7l9-16.9c0.5-1,1.7-1.3,2.7-0.8    c1,0.5,1.3,1.7,0.8,2.7l-9,16.9C130.7,50.8,130,51.2,129.3,51.2z"></path>
	</g>
</g>
<g>
	<g>
		<path class="st1" d="M99.2,184.7c-1.1,0-2-0.9-2-2v-19.1c0-1.1,0.9-2,2-2s2,0.9,2,2v19.1C101.2,183.8,100.3,184.7,99.2,184.7z"></path>
	</g>
	<g>
		<path class="st1" d="M60.2,175c-0.3,0-0.6-0.1-0.9-0.2c-1-0.5-1.3-1.7-0.8-2.7l9-16.8c0.5-1,1.7-1.3,2.7-0.8    c1,0.5,1.3,1.7,0.8,2.7l-9,16.8C61.6,174.6,60.9,175,60.2,175z"></path>
	</g>
	<g>
		<path class="st1" d="M138.2,175c-0.7,0-1.4-0.4-1.8-1.1l-9-16.8c-0.5-1-0.1-2.2,0.8-2.7c1-0.5,2.2-0.1,2.7,0.8l9,16.8    c0.5,1,0.1,2.2-0.8,2.7C138.9,174.9,138.6,175,138.2,175z"></path>
	</g>
</g>
</svg>
