<?xml version="1.0" encoding="UTF-8"?>
<!-- Generator: Adobe Illustrator 26.0.1, SVG Export Plug-In . SVG Version: 6.00 Build 0)  -->
<svg xmlns="http://www.w3.org/2000/svg" xmlns:xlink="http://www.w3.org/1999/xlink" version="1.1" id="Layer_1" x="0px" y="0px" viewBox="0 0 200 200" style="enable-background:new 0 0 200 200;" xml:space="preserve">
<style type="text/css">
	.st0{fill:#F39A4F;}
	.st1{fill:#3B3B3B;}
</style>
<path class="st0" d="M159.5,129.1c-8.4,0-16.4-3.1-22.5-8.8c-2.2-2.1-4-4.4-5.5-6.6l-0.1-0.1l0,0c-4.1-6.3-5.7-13.2-4.8-20.5  c0,0,0-0.1,0-0.1c0.3-2.2,0.8-4.4,1.5-6.7c0.9-2.8,2.1-5.4,3.5-7.8c0.1-0.2,0.1-0.2,0.2-0.3l0.1-0.1c3.2-5.2,7.7-9.2,13.3-11.7  l0.2-0.1l0,0c2.9-1.3,6.2-2.2,9.8-2.7c1.5-0.2,3.1-0.3,4.6-0.3c15.4,0,28.9,11,32.1,26.2c0.1,0.5,0.2,0.9,0.3,1.4l0.4,2.3v6.1v0  c-0.1,0.2-0.1,0.4-0.2,0.5c0,0.2-0.1,0.3-0.1,0.4c-0.2,2-0.7,4-1.3,5.9c-0.1,0.2-0.1,0.4-0.2,0.6c-1.1,3.3-2.7,6.4-4.8,9.2l-0.2,0.2  c-0.1,0.1-0.2,0.3-0.3,0.4c-0.2,0.2-0.4,0.4-0.5,0.7c-0.2,0.2-0.3,0.4-0.5,0.6c-0.5,0.6-1.1,1.2-1.6,1.8c-0.1,0.1-0.1,0.1-0.1,0.1  h-0.9l0,0.8C175.7,126.1,167.8,129.1,159.5,129.1z M133.4,82.6c-5.6,9.5-4.2,23.5,3.4,32.5c5.7,6.7,13.9,10.6,22.6,10.6  c3.6,0,7.2-0.7,10.6-2c11.6-4.4,18.1-15.5,18.5-24.2l0.1-1.6c0,0-14,0-16.1,0c-4.7,0-8.3,0-11.7-0.1c-1.1,0-2.3-0.4-3.2-1  c-5.1-3.3-10.2-6.8-15.2-10.2c-1.8-1.2-3.5-2.4-5.3-3.6c-0.4-0.2-0.7-0.5-1.1-0.7l-1.7-1.1L133.4,82.6z M161.4,94.4h27.4l-0.1-1.6  c-1-13.1-12.8-24.9-25.7-25.7l-1.6-0.1L161.4,94.4L161.4,94.4z M156.1,67c-6.3,0.2-15,4.8-18.9,10l-0.9,1.2l21.4,14.5V67L156.1,67z"></path>
<path class="st1" d="M67.7,38.5c-1,0-1.7-0.5-1.9-1.4c-0.1-0.7,0-1.7,1.6-2c1.2-0.2,3-0.6,4-2.4h3.8c-0.2,0.7-0.5,1.3-0.8,1.8  c-1.4,2.5-3.6,3.8-6.6,4C67.8,38.5,67.8,38.5,67.7,38.5L67.7,38.5z"></path>
<path class="st1" d="M114.7,38.4c-0.5,0-1.8-0.1-1.9-1.4c-0.1-0.8,0-1.7,1.6-2c1.2-0.2,3.1-0.6,4-2.4h3.8c-0.9,3.3-3.7,5.5-7.3,5.8  C114.9,38.4,114.8,38.4,114.7,38.4L114.7,38.4z"></path>
<path class="st1" d="M119.2,29.7c0-1.7,0-4-2.3-5.5c-0.8-0.5-1.6-0.8-2.5-0.8c-0.9,0-1.8,0.3-2.6,0.8c-2.3,1.5-2.2,3.8-2.2,5.4h-3.5  c0-0.7,0-1.4,0-2.1c0.3-4.3,3.7-7.6,8.1-7.7h0.2c4.1,0,7.6,3.1,8.1,7.3c0.1,0.8,0.1,1.6,0.2,2.5C122.8,29.7,119.2,29.7,119.2,29.7z"></path>
<path class="st1" d="M72.3,29.7c0-1.7,0-4-2.3-5.5c-0.8-0.5-1.6-0.8-2.5-0.8c-0.9,0-1.7,0.3-2.6,0.8c-2.3,1.5-2.3,3.8-2.2,5.4h-3.5  c0-0.3,0-0.6,0-0.8c0.1-5.2,3.5-8.9,8.2-8.9c4.7,0,8.2,3.7,8.3,8.8c0,0.3,0,0.6,0,1C75.8,29.7,72.3,29.7,72.3,29.7z"></path>
<path class="st1" d="M65.8,96.6c-6.8,0-13.6,0-20.3,0c-1.8,0-2.4-0.6-2.4-2.4c0-3,0-5.9,0-8.9v-1.2c0-7.4,3.9-12.3,11.1-14.1  l2.8-0.7l-0.9-1.7c-1.4-2.6-1.5-5.5-1.3-8.2c0.3-5.8,5-10.4,10.8-10.5h0.3c5.4,0,10.1,4.2,10.8,9.7c0.2,1.7,0.2,3.3,0.1,4.8  c-0.1,1-0.4,2-0.8,3.1c-0.2,0.5-0.3,1-0.4,1.6l-0.4,1.6l1.6,0.3c2.8,0.5,5.2,1.6,7.2,3.3c3,2.7,4.5,6.1,4.6,10.4  c0.1,3.5,0,7.2,0,10.5c0,1.8-0.6,2.4-2.4,2.4C79.4,96.6,72.6,96.6,65.8,96.6z M66.5,73.3c-3.4,0-7,0.1-10.9,0.2  c-4.5,0.1-8.1,3.4-8.6,7.7c-0.3,2.4-0.2,4.9-0.2,7.3c0,1,0.1,2.1,0.1,3.1V93h38.2v-1.5c0-0.9,0-1.8,0-2.7c0-2,0.1-3.9-0.1-5.8  c-0.3-5.5-4-9.3-9.2-9.5C72.9,73.3,69.7,73.3,66.5,73.3z M58.3,62.4c0.2,4.1,3.4,7.3,7.4,7.3h0.1c4.1,0,7.4-3.1,7.6-7.2  c0.1-1.3,0.1-2.3,0-3.3c-0.3-3.5-3.1-6.4-6.7-6.8c-0.3,0-0.6,0-0.9,0c-3.2,0-6.1,2.1-7.1,5.1c-0.3,0.8-0.3,1.6-0.4,2.3  c0,0.3-0.1,0.6-0.1,0.9l-0.2,1.5l0.4,0C58.3,62.3,58.3,62.3,58.3,62.4z"></path>
<path class="st1" d="M45.5,159.1c-1.9,0-2.5-0.6-2.5-2.5c0-3.4,0-6.7,0-10.1c0-7.3,4-12.2,11.1-14l2.7-0.7l-0.7-1.6  c-1.7-3.7-1.9-7.4-0.7-11.3c1.3-4.3,5.7-7.6,10.3-7.6c0.2,0,0.4,0,0.6,0c5.3,0.3,9.6,4.1,10.4,9c0.6,3.8,0.3,6.9-0.9,9.3l-0.7,1.3  l1.3,0.7c0.8,0.4,1.7,0.8,2.5,1.2c1.7,0.8,3.4,1.6,4.8,2.6c3.2,2.4,4.8,5.9,4.9,10.6c0.1,3.4,0,6.6,0,10.5c0,1.9-0.6,2.5-2.5,2.5  c-6.9,0-13.8,0-20.7,0C58.8,159.1,52.2,159.1,45.5,159.1z M66.6,135.8c-3.5,0-7.2,0.1-11.2,0.2c-4.1,0.1-7.7,3.2-8.3,7.2  c-0.4,2.5-0.5,5.1-0.5,7.6c0,1.1,0,2.1-0.1,3.2l-0.1,1.6h38.7V152c0-1.8,0-3.5,0-5.2c0-0.7,0-1.6-0.2-2.5c-0.8-4.9-4.3-8.2-8.9-8.4  C73,135.9,69.8,135.8,66.6,135.8z M58.3,125c0.2,4.2,3.4,7.3,7.5,7.3c4.2,0,7.4-3.3,7.6-7.6c0-0.9,0-1.8,0-2.7  c-0.2-3.7-3.1-6.7-6.8-7.1c-0.2,0-0.5,0-0.7,0c-3.5,0-6.5,2.4-7.3,5.8c-0.2,0.7-0.2,1.4-0.2,2c0,0.2,0,0.5,0,0.8l-0.1,1.5L58.3,125z  "></path>
<path class="st1" d="M109.8,143.5c-2.2,0-4.3,0-6.4,0c-0.8,0-1.5-0.3-1.9-0.7c-0.4-0.5-0.3-1.1-0.2-1.5c0.2-0.6,0.5-1.2,1.7-1.3  c0.5,0,0.9,0,1.4,0c0.3,0,1.7,0,2,0H117c5.6,0,11.2,0,16.8,0c0.6,0,1.1,0,1.6,0.1c0.8,0.2,1.3,0.9,1.3,1.6c0,0.8-0.6,1.5-1.4,1.7  c-0.4,0.1-0.9,0.1-1.4,0.1c-2.6,0-5.2,0-7.8,0L109.8,143.5z"></path>
<path class="st1" d="M119,159.1h-7.6c-2.5,0-5,0-7.6,0c-0.7,0-1.3-0.1-1.7-0.2c-0.4-0.1-1-0.5-1-1.5c0-1,0.6-1.4,1-1.5  c0.4-0.1,0.9-0.2,1.5-0.2c6.1,0,12.2,0,18.3,0h12.6c1,0,2.2,0.5,2.2,1.8c0,1.1-0.9,1.7-2.1,1.7c-2.2,0-4.4,0-6.6,0L119,159.1z"></path>
<path class="st1" d="M112.3,127.9l-5.2,0c-1.2,0-2.4,0-3.6,0c-1.1,0-2.4-0.3-2.4-1.7c0-0.5,0.1-0.9,0.4-1.1c0.4-0.4,1.1-0.6,1.9-0.6  c2.9,0,5.8,0,8.7,0c3,0,6,0,9,0c0.9,0,2.4,0.2,2.4,1.7c0,1.5-1.5,1.8-2.3,1.8c-1.2,0-2.4,0-3.6,0L112.3,127.9z"></path>
<path class="st1" d="M106.2,81c-0.9,0-1.8,0-2.7,0c-0.8,0-2.2-0.2-2.3-1.7c0-0.5,0.1-0.9,0.4-1.2c0.4-0.4,1.1-0.6,1.9-0.6  c2.2,0,4.4,0,6.7,0c2.3,0,4.6,0,7,0c0.8,0,1.5,0.2,1.9,0.6c0.3,0.3,0.4,0.7,0.4,1.1c0,1.6-1.7,1.7-2.4,1.7c-0.9,0-1.7,0-2.6,0  l-4.2,0L106.2,81z"></path>
<path class="st1" d="M110.3,96.6l-4.2,0c-0.9,0-1.8,0-2.6,0c-0.8,0-1.5-0.2-1.9-0.6c-0.3-0.3-0.4-0.7-0.4-1.1c0-1.5,1.4-1.7,2.3-1.7  c2.3,0,4.6,0,6.9,0s4.6,0,6.9,0c1.1,0,2.2,0.5,2.2,1.7s-1.1,1.7-2.2,1.8c-0.9,0-1.8,0-2.7,0L110.3,96.6z"></path>
<path class="st1" d="M107.2,65.4c-1.3,0-2.7,0-4.1-0.1c-1.2,0-1.9-0.7-1.9-1.7c0-1,0.7-1.7,2-1.8h4.3c0.5,0,2,0,2.4,0  c0.5,0,1,0,1.4,0c1.2,0,2,0.7,2,1.7c0,0.4-0.1,0.8-0.4,1.2c-0.4,0.4-0.9,0.6-1.6,0.6C109.9,65.3,108.5,65.4,107.2,65.4z"></path>
<path class="st1" d="M130.6,127.8c-0.4,0-0.8-0.2-1.2-0.6c-0.3-0.3-0.5-0.8-0.5-1.2c0-0.8,0.9-1.7,1.7-1.7c0.4,0,0.9,0.2,1.2,0.6  c0.3,0.3,0.5,0.8,0.5,1.2C132.4,127,131.5,127.8,130.6,127.8L130.6,127.8z"></path>
<g>
	<path class="st1" d="M137.8,181.2H40c-6.3,0-11.5-5.2-11.5-11.5v-40.5c0-1.1,0.9-2,2-2s2,0.9,2,2v40.5c0,4.1,3.4,7.5,7.5,7.5h97.8   c4.1,0,7.5-3.4,7.5-7.5v-34.4c0-1.1,0.9-2,2-2s2,0.9,2,2v34.4C149.3,176,144.1,181.2,137.8,181.2z"></path>
</g>
<g>
	<path class="st1" d="M30.5,115.6c-1.1,0-2-0.9-2-2V40.9c0-6.3,5.2-11.5,11.5-11.5h97.8c6.3,0,11.5,5.2,11.5,11.5v15.4   c0,1.1-0.9,2-2,2s-2-0.9-2-2V40.9c0-4.1-3.4-7.5-7.5-7.5H40c-4.1,0-7.5,3.4-7.5,7.5v72.7C32.5,114.7,31.6,115.6,30.5,115.6z"></path>
</g>
<circle class="st1" cx="30.5" cy="121.4" r="2.2"></circle>
</svg>
