<?xml version="1.0" encoding="UTF-8"?>
<svg xmlns="http://www.w3.org/2000/svg" xmlns:xlink="http://www.w3.org/1999/xlink" version="1.1" id="Layer_1" x="0px" y="0px" viewBox="0 0 200 200" style="enable-background:new 0 0 200 200;" xml:space="preserve">
<style type="text/css">
	.st0{fill:#F39A4F;}
	.st1{fill:#3B3B3B;}
</style>
<g>
	<g>
		<path class="st0" d="M172.8,58.9c-0.1,0-0.1,0-0.1-0.1c-0.9-0.4-1.8-0.8-2.7-1.1c-2.3-0.8-4.1-2.1-5.4-4.1    c-0.6-0.9-1.2-1.7-1.9-2.5c0,0-0.1-0.1-0.1-0.1c-0.3-0.4-0.9-0.4-1.3,0c0,0,0,0.1-0.1,0.1c-0.7,0.8-1.3,1.5-1.8,2.4    c-1.4,2.1-3.2,3.5-5.6,4.3c-0.9,0.3-1.8,0.7-2.6,1.1c0,0-0.1,0-0.1,0c-0.4,0.2-0.6,0.8-0.4,1.2c0.1,0.2,0.3,0.4,0.4,0.6    c0.9,1.5,1.7,2.9,2.5,4.3c0.3,0.6,0.5,1.2,0.6,1.9c0.2,1.7,0.3,3.4,0.4,5.2c0,0.2,0,0.5,0.1,0.7c0,0.5,0.5,0.9,1,0.7    c0.2-0.1,0.4-0.1,0.6-0.1c1.6-0.4,3.2-0.8,4.8-1.2c0.3-0.1,0.6-0.1,0.9-0.1c0.3,0,0.6,0.1,0.9,0.1c1.6,0.4,3.2,0.8,4.8,1.2    c0.2,0.1,0.4,0.1,0.6,0.1c0.5,0.1,1-0.2,1-0.7c0-0.2,0-0.4,0.1-0.7c0.1-1.7,0.2-3.3,0.4-4.9c0.1-0.8,0.4-1.7,0.8-2.5    c0.7-1.4,1.5-2.7,2.3-4.1c0.1-0.2,0.2-0.4,0.3-0.5C173.4,59.7,173.2,59.2,172.8,58.9z M167.9,60.8c-0.2,0.4-0.5,0.8-0.7,1.1    c-0.5,0.8-0.9,1.5-1.2,2.2c-0.2,0.8-0.3,1.6-0.3,2.6c0,0.4,0,0.9-0.1,1.3l0,0.3l-0.3-0.1c-1.1-0.5-2.2-0.8-3.4-0.8    c-1.2,0-2.3,0.3-3.5,0.8l-0.4,0.2l0-0.4c0.2-2.8-0.5-5.1-2.3-7.2l-0.2-0.3l0.4-0.1c2.6-0.6,4.4-1.9,5.8-4.3l0.2-0.4l0.2,0.3    c1.4,2.5,3.2,3.8,5.6,4.3l0.3,0.1L167.9,60.8z"></path>
	</g>
	<g>
		<path class="st0" d="M49.6,58.9c0,0-0.1,0-0.2-0.1c-0.9-0.4-1.8-0.8-2.7-1.1c-2.3-0.8-4-2.1-5.4-4.1c-0.6-0.9-1.2-1.7-2-2.5    c0,0-0.1-0.1-0.1-0.1c-0.3-0.4-0.9-0.4-1.3,0c0,0,0,0.1-0.1,0.1c-0.7,0.8-1.3,1.5-1.8,2.4c-1.4,2.1-3.2,3.5-5.6,4.3    c-0.9,0.3-1.8,0.7-2.6,1.1c0,0-0.1,0-0.1,0c-0.5,0.2-0.6,0.8-0.4,1.2c0.1,0.2,0.3,0.4,0.4,0.6c0.9,1.5,1.7,2.9,2.5,4.3    c0.3,0.6,0.5,1.2,0.6,1.9c0.2,1.7,0.3,3.4,0.4,5.2c0,0.2,0,0.5,0,0.7c0,0.5,0.5,0.9,1,0.7c0.2-0.1,0.4-0.1,0.6-0.1    c1.7-0.4,3.2-0.8,4.8-1.2c0.3-0.1,0.6-0.1,0.9-0.1c0.3,0,0.6,0.1,0.9,0.1c1.6,0.4,3.2,0.8,4.8,1.2c0.2,0.1,0.4,0.1,0.6,0.1    c0.5,0.1,1-0.2,1-0.7c0-0.2,0-0.4,0-0.7c0.1-1.7,0.2-3.3,0.4-4.9c0.1-0.8,0.4-1.7,0.8-2.5c0.7-1.4,1.5-2.7,2.3-4.1    c0.1-0.2,0.2-0.4,0.3-0.5C50.2,59.7,50,59.2,49.6,58.9z M44.8,60.8c-0.2,0.4-0.5,0.8-0.7,1.1c-0.5,0.8-0.9,1.5-1.2,2.2    c-0.2,0.8-0.3,1.6-0.3,2.6c0,0.4,0,0.9-0.1,1.3l0,0.3l-0.3-0.1c-1.2-0.5-2.2-0.8-3.3-0.8c-1.2,0-2.3,0.3-3.5,0.8l-0.4,0.2l0-0.4    c0.2-2.8-0.5-5.1-2.3-7.2l-0.2-0.3l0.4-0.1c2.6-0.6,4.4-1.9,5.8-4.3l0.2-0.4l0.2,0.3c1.4,2.5,3.2,3.8,5.6,4.3l0.3,0.1L44.8,60.8z"></path>
	</g>
	<g>
		<path class="st0" d="M87.9,56.9c-0.2-2.9-0.4-5.7-0.7-8.5c-0.1-1-0.4-2.1-1-3.1c-1.3-2.4-2.7-4.7-4.1-7.1c-0.2-0.3-0.4-0.7-0.6-1    c-0.4-0.7-0.1-1.6,0.6-1.9c0.1,0,0.1,0,0.2-0.1c1.5-0.7,2.9-1.3,4.3-1.8c3.9-1.3,6.9-3.6,9.2-7c0.9-1.3,1.9-2.5,3-3.9    c0,0,0.1-0.1,0.1-0.2c0.5-0.6,1.5-0.6,2.1,0c0.1,0.1,0.1,0.1,0.2,0.2c1.2,1.4,2.2,2.7,3.2,4.1c2.2,3.2,5.1,5.4,8.8,6.7    c1.5,0.5,2.9,1.2,4.4,1.8c0.1,0,0.2,0.1,0.2,0.1c0.7,0.3,1,1.2,0.6,1.9c-0.2,0.3-0.3,0.6-0.5,0.9c-1.3,2.3-2.6,4.4-3.8,6.7    c-0.7,1.3-1.2,2.8-1.3,4.1c-0.3,2.7-0.5,5.3-0.7,8c0,0.4-0.1,0.7-0.1,1.1c-0.1,0.8-0.9,1.4-1.7,1.2c-0.3-0.1-0.6-0.2-0.9-0.2    c-2.7-0.7-5.3-1.3-7.9-2c-0.5-0.1-1-0.2-1.5-0.2s-1,0.1-1.5,0.2c-2.6,0.6-5.2,1.3-7.9,2c-0.3,0.1-0.6,0.2-0.9,0.2    c-0.8,0.2-1.6-0.4-1.7-1.2C87.9,57.7,87.9,57.3,87.9,56.9z M99.6,28.3c-2.9,5.1-6.8,8-12.4,9.3l-0.8,0.2l0.6,0.6    c3.8,4.4,5.4,9.3,4.9,15.4l-0.1,0.9l0.8-0.4c2.6-1.2,5-1.8,7.5-1.8c2.4,0,4.7,0.5,7.2,1.6l0.6,0.3l0.1-0.7c0.1-1,0.1-1.9,0.2-2.8    c0.1-2,0.2-3.8,0.7-5.5c0.5-1.6,1.5-3.2,2.6-4.8c0.5-0.8,1-1.6,1.5-2.4l0.3-0.6l-0.7-0.1c-5.2-1-9-3.9-12.1-9.1l-0.4-0.8    L99.6,28.3z"></path>
	</g>
	<g>
		<path class="st1" d="M129,101.4c-0.8,1-2.4,0.3-2.2-0.9c0.1-0.5,0.2-1.1,0.2-1.6c0.7-5.1,1.5-10.5,2.7-15.6    c1.7-7,5.9-13,12.9-18.1c0.6-0.4,1.5-0.2,1.8,0.4l6.3,12.6c0.3,0.6,0.1,1.3-0.5,1.6c-8.3,5.1-14.2,12.7-19.9,20    C129.9,100.3,129.5,100.9,129,101.4z M141.8,71.6c-4.7,4.5-7.5,9.7-8.7,15.9l-0.3,1.5L144.8,78c0.4-0.4,0.5-1,0.3-1.5l-2.7-5.4    L141.8,71.6z"></path>
	</g>
	<g>
		<path class="st1" d="M70.6,99.8c-5.8-7.3-11.7-14.8-20-20c-0.5-0.3-0.8-1-0.5-1.6l6.3-12.6c0.3-0.7,1.2-0.9,1.8-0.4    c7,5.1,11.2,11.1,12.9,18.1c1.2,5.1,1.9,10.4,2.7,15.6c0.1,0.5,0.2,1.1,0.2,1.6c0.2,1.2-1.4,1.9-2.2,0.9    C71.5,100.9,71.1,100.3,70.6,99.8z M58.7,71.1l-2.7,5.4c-0.2,0.5-0.1,1.1,0.3,1.5L68.1,89l-0.3-1.5c-1.2-6.1-4-11.3-8.7-15.9    L58.7,71.1z"></path>
	</g>
	<g>
		<path class="st1" d="M98,105.4V75.7c0-1.1,0.9-2.1,2.1-2.1l0,0c1.1,0,2.1,0.9,2.1,2.1v29.7c0,1.1-0.9,2.1-2.1,2.1l0,0    C98.9,107.4,98,106.5,98,105.4z"></path>
	</g>
	<g>
		<path class="st1" d="M97.9,65L97.9,65c0-1.2,0.9-2.1,2.1-2.1l0,0c1.1,0,2.1,0.9,2.1,2.1V65c0,1.1-0.9,2.1-2.1,2.1l0,0    C98.8,67.1,97.9,66.2,97.9,65z"></path>
	</g>
	<g>
		<path class="st1" d="M132.2,51.7v-0.2c0-1.1,0.9-2,2-2l0,0c1.1,0,2,0.9,2,2v0.2c0,1.1-0.9,2-2,2l0,0    C133.1,53.7,132.2,52.8,132.2,51.7z"></path>
	</g>
	<g>
		<path class="st1" d="M65.7,51.6L65.7,51.6c0-1.2,0.9-2.2,2.1-2.2l0,0c1.1,0,2.1,0.9,2.1,2.1v0.1c0,1.1-0.9,2.1-2.1,2.1l0,0    C66.6,53.7,65.7,52.7,65.7,51.6z"></path>
	</g>
	<g>
		<path class="st1" d="M140.3,40.8v-0.1c0-1.1,0.9-2.1,2.1-2.1l0,0c1.1,0,2.1,0.9,2.1,2.1v0.1c0,1.1-0.9,2.1-2.1,2.1l0,0    C141.2,42.9,140.3,42,140.3,40.8z"></path>
	</g>
	<g>
		<path class="st1" d="M57.6,40.8L57.6,40.8c0-1.1,0.9-2.1,2.1-2.1h0c1.1,0,2.1,0.9,2.1,2.1l0,0c0,1.1-0.9,2.1-2.1,2.1h0    C58.5,42.9,57.6,41.9,57.6,40.8z"></path>
	</g>
	<g>
		<g>
			<path class="st1" d="M146.1,180.8H53.3c-2.3,0-4.2-1.9-4.2-4.2v-44.8c0-1.1,0.9-2,2-2s2,0.9,2,2v44.8c0,0.1,0.1,0.2,0.2,0.2h92.8     l0-45c0-1.1,0.9-2,2-2s2,0.9,2,2v45C150.1,179,148.3,180.8,146.1,180.8z"></path>
		</g>
		<g>
			<path class="st1" d="M89.3,133.8h-47c-1,0-1.9-0.5-2.3-1.3c-0.5-0.8-0.5-1.8,0-2.7l9.2-16.6c0.4-0.8,1.4-1.4,2.4-1.4h47.7     c1,0,1.9,0.5,2.3,1.3c0.5,0.8,0.5,1.9,0,2.7l-10,16.6C91.1,133.3,90.2,133.8,89.3,133.8z M43.4,131.7L43.4,131.7     C43.4,131.7,43.4,131.7,43.4,131.7z M88.2,130.4C88.2,130.4,88.2,130.4,88.2,130.4L88.2,130.4z M44.5,129.8h44.1l8.4-14H52.3     L44.5,129.8z M99.2,115.8L99.2,115.8L99.2,115.8z M52.6,115.1L52.6,115.1C52.6,115.2,52.6,115.1,52.6,115.1z"></path>
		</g>
		<g>
			<path class="st1" d="M156.8,133.8H110c-1,0-1.9-0.5-2.4-1.4L98,115.9c-0.5-0.9-0.5-1.9,0-2.7c0.5-0.8,1.4-1.3,2.3-1.3h47.3     c1,0,1.9,0.6,2.4,1.4l9.2,16.5c0.5,0.8,0.5,1.9,0,2.7C158.7,133.3,157.8,133.8,156.8,133.8z M155.7,131.7     C155.7,131.7,155.7,131.7,155.7,131.7L155.7,131.7z M111.1,130.4L111.1,130.4C111.1,130.4,111.1,130.4,111.1,130.4z M110.8,129.8     h43.9l-7.8-14h-44.2L110.8,129.8z M147.6,115.8L147.6,115.8L147.6,115.8z M146.5,115.2C146.5,115.2,146.5,115.2,146.5,115.2     L146.5,115.2z"></path>
		</g>
		<g>
			<path class="st1" d="M99.6,150.7c-1.1,0-2-0.9-2-2v-34.8c0-1.1,0.9-2,2-2s2,0.9,2,2v34.8C101.6,149.8,100.7,150.7,99.6,150.7z"></path>
		</g>
		<g>
			<path class="st1" d="M99.6,180.8c-1.1,0-2-0.9-2-2v-21c0-1.1,0.9-2,2-2s2,0.9,2,2v21C101.6,179.9,100.7,180.8,99.6,180.8z"></path>
		</g>
	</g>
	<g>
		<path class="st1" d="M87.2,107.5c-0.1,0-0.1,0-0.2,0c-1.1-0.1-1.9-1.1-1.8-2.2c0-0.3,2.1-27.9-13.3-43.9c-0.8-0.8-0.7-2.1,0.1-2.8    c0.8-0.8,2.1-0.7,2.8,0.1c16.6,17.4,14.5,45.8,14.3,47C89.1,106.7,88.3,107.5,87.2,107.5z"></path>
	</g>
	<g>
		<path class="st1" d="M112.8,107.5c-1,0-1.9-0.8-2-1.8c-0.1-1.2-2.3-29.6,14.4-47c0.8-0.8,2-0.8,2.8-0.1s0.8,2,0.1,2.8    c-15.4,16.1-13.3,43.6-13.3,43.9c0.1,1.1-0.7,2.1-1.8,2.2C113,107.5,112.9,107.5,112.8,107.5z"></path>
	</g>
</g>
</svg>
